<?xml version="1.0" encoding="UTF-8"?>
<svg version="1.1" xmlns="http://www.w3.org/2000/svg" width="512" height="512">
<path d="M0 0 C126.72 0 253.44 0 384 0 C384 126.72 384 253.44 384 384 C257.28 384 130.56 384 0 384 C0 257.28 0 130.56 0 0 Z " fill="#FED500" transform="translate(64,64)"/>
<path d="M0 0 C7.05650719 4.88689453 13.04451442 11.30059865 17.125 18.875 C17.125 19.535 17.125 20.195 17.125 20.875 C15.58374023 22.0324707 15.58374023 22.0324707 13.43359375 23.30078125 C12.65306641 23.76806641 11.87253906 24.23535156 11.06835938 24.71679688 C10.24142578 25.20212891 9.41449219 25.68746094 8.5625 26.1875 C6.95546585 27.13928896 5.34997537 28.09368944 3.74609375 29.05078125 C2.96476074 29.51564941 2.18342773 29.98051758 1.37841797 30.45947266 C-0.7670517 31.80719022 -2.76240168 33.25936512 -4.77734375 34.79296875 C-5.79957031 35.48003906 -6.82179688 36.16710937 -7.875 36.875 C-11.33811825 35.72062725 -11.68327999 35.00235136 -13.625 32.0625 C-16.47146674 28.20487962 -19.1463318 25.20678177 -23.875 23.875 C-30.173284 23.26774888 -36.10534362 23.00501655 -41.875 25.875 C-44.95230845 28.61038529 -46.58573722 30.20971147 -47.29296875 34.28125 C-47.4571512 39.47254267 -47.13541787 43.68303417 -43.875 47.875 C-36.38400649 53.43699688 -28.17728721 57.14667513 -19.625 60.75 C0.82864556 69.64216515 17.26228034 78.35512413 26.125 99.875 C27.48018668 104.42986844 27.30906267 108.90898969 27.3125 113.625 C27.32474609 114.49382812 27.33699219 115.36265625 27.34960938 116.2578125 C27.37821592 128.95911711 23.08972602 139.56168136 14.3515625 148.83984375 C7.70161148 154.91813231 -0.33800582 158.28803207 -8.875 160.875 C-10.64423828 161.41447266 -10.64423828 161.41447266 -12.44921875 161.96484375 C-30.34355726 166.31626835 -51.45384707 163.35192742 -67.17285156 153.99072266 C-77.18110326 147.43052325 -85.52384891 138.04087258 -89.875 126.875 C-89.25979492 126.46660889 -88.64458984 126.05821777 -88.01074219 125.63745117 C-85.21468195 123.78035458 -82.41983041 121.92144684 -79.625 120.0625 C-78.65691406 119.41990234 -77.68882812 118.77730469 -76.69140625 118.11523438 C-75.75683594 117.49326172 -74.82226562 116.87128906 -73.859375 116.23046875 C-72.57111816 115.37424927 -72.57111816 115.37424927 -71.25683594 114.50073242 C-68.87406058 112.92018139 -68.87406058 112.92018139 -66.75097656 111.1652832 C-64.875 109.875 -64.875 109.875 -61.875 109.875 C-60.19140625 111.88671875 -60.19140625 111.88671875 -58.4375 114.5625 C-57.81875 115.47773438 -57.2 116.39296875 -56.5625 117.3359375 C-56.005625 118.17382812 -55.44875 119.01171875 -54.875 119.875 C-50.63517348 126.02958688 -44.21889627 130.32148348 -36.875 131.875 C-29.62312807 132.45764681 -22.38920003 132.47179756 -15.875 128.875 C-12.31465305 125.75009117 -10.13951662 122.39441244 -9.63671875 117.60546875 C-9.46736721 111.80295026 -9.74826716 108.3036889 -13.875 103.875 C-21.43196422 97.8986757 -30.27928145 94.41813451 -39.07397461 90.703125 C-56.75297507 83.19834447 -71.41304822 74.05349338 -79.75 56.125 C-83.66478068 44.81563359 -83.37943788 30.21437421 -78.72265625 19.1328125 C-71.92617891 5.53985783 -61.58683944 -1.26615663 -47.6328125 -6.29296875 C-32.0791376 -9.73676579 -13.81406549 -8.04869105 0 0 Z " fill="#020100" transform="translate(377.875,242.125)"/>
<path d="M0 0 C11.55 0 23.1 0 35 0 C35.06792637 16.31696021 35.12310301 32.63379827 35.15543652 48.95086098 C35.1708538 56.52849035 35.19184398 64.10602513 35.22631836 71.68359375 C35.25637922 78.29425512 35.27561227 84.90484793 35.28226548 91.51557577 C35.28614974 95.01043596 35.29516856 98.50510013 35.31719017 101.999897 C35.34167153 105.91744696 35.3419594 109.83481153 35.34057617 113.75244141 C35.351362 114.88965134 35.36214783 116.02686127 35.3732605 117.1985321 C35.31251223 133.22294703 31.63966036 146.94394993 20.53515625 158.734375 C7.88119432 170.04300045 -8.24326726 170.90749341 -24.38964844 170.22216797 C-40.9621586 168.81167561 -54.60613318 158.29940907 -65 146 C-67.33215979 142.82757676 -69.57906274 139.68883713 -71 136 C-69.27767982 130.83303947 -63.93666 128.99428511 -59.40820312 126.31005859 C-57.63047005 125.25325178 -55.86590646 124.17663179 -54.1015625 123.09765625 C-52.9878125 122.43121094 -51.8740625 121.76476562 -50.7265625 121.078125 C-49.18863037 120.15628418 -49.18863037 120.15628418 -47.61962891 119.21582031 C-45 118 -45 118 -42 119 C-40.67578125 120.671875 -40.67578125 120.671875 -39.3125 122.75 C-35.49144298 128.05755302 -30.53152937 131.82199202 -24 133 C-14.74086432 134.07164803 -14.74086432 134.07164803 -6.3125 131.0625 C-0.82050925 123.78932306 -0.55588316 115.89554492 -0.56762695 107.05444336 C-0.5574353 105.89245422 -0.54724365 104.73046509 -0.53674316 103.53326416 C-0.50671449 99.71874099 -0.49736241 95.90446938 -0.48828125 92.08984375 C-0.47142706 89.43467954 -0.45341993 86.77954812 -0.43388367 84.12440491 C-0.39035547 77.86672959 -0.36172484 71.60908005 -0.33856028 65.35129982 C-0.31143484 58.22176703 -0.26752817 51.09236772 -0.22227156 43.96293056 C-0.12962147 29.30868768 -0.06006587 14.65441375 0 0 Z " fill="#000000" transform="translate(235,235)"/>
</svg>
