<?xml version="1.0" encoding="UTF-8"?>
<svg version="1.1" xmlns="http://www.w3.org/2000/svg" width="512" height="512">
<path d="M0 0 C120.12 0 240.24 0 364 0 C362.23534452 22.35230278 360.46541176 44.69442032 358.48933029 67.02752304 C358.08487885 71.60326612 357.68286293 76.17922181 357.28094482 80.75518799 C356.62270803 88.24588652 355.96268158 95.73642623 355.30195151 103.22690521 C354.76507103 109.31378286 354.22890218 115.40072284 353.6932106 121.48770523 C353.61619568 122.36281171 353.53918076 123.23791818 353.45983205 124.13954303 C353.30328454 125.91840472 353.14673888 127.69726658 352.99019505 129.47612859 C351.53438135 146.01819208 350.07652748 162.56007525 348.61790933 179.10189165 C347.36826155 193.27433688 346.1202893 207.44692884 344.87353516 221.61962891 C343.4185032 238.15994869 341.96253238 254.70018536 340.50500023 271.24028504 C340.34971858 273.00244586 340.19443779 274.76460676 340.03915787 276.52676773 C339.96278846 277.39341957 339.88641904 278.2600714 339.80773541 279.15298542 C339.27114009 285.24305628 338.73520428 291.33318496 338.19952011 297.42333603 C337.54823584 304.8274873 336.89589507 312.23154458 336.24220763 319.63548408 C335.90918532 323.40772152 335.57662658 327.17999826 335.24534225 330.95238876 C334.88617298 335.04212111 334.52472667 339.13164904 334.16305542 343.22116089 C334.00707439 345.0033083 334.00707439 345.0033083 333.84794223 346.8214587 C333.3379843 352.56557701 332.76299333 358.28379097 332 364 C312.99481099 369.51355475 293.98422355 375.00809436 274.9670496 380.48017216 C266.1367872 383.0215046 257.30838621 385.56898317 248.48413086 388.13110352 C240.79118425 390.36473157 233.09497013 392.58665617 225.39464086 394.79470438 C221.31902901 395.96381303 217.24526854 397.13863734 213.17537117 398.3275013 C209.34060697 399.44747988 205.50164621 400.55169517 201.65898132 401.64424706 C200.25332435 402.04684181 198.84926113 402.45505252 197.44703484 402.86943817 C189.97565265 405.07374617 183.65719397 406.91207465 176 405 C174.98557799 404.74858214 173.97115599 404.49716429 172.92599392 404.23812771 C169.18745229 403.25386455 165.47304477 402.19639632 161.75952148 401.12280273 C160.3396698 400.71809798 158.91963586 400.31403219 157.49943542 399.91055298 C153.66764261 398.82000244 149.83844326 397.72059434 146.00966525 396.61951327 C141.99930736 395.4678698 137.98659784 394.32447918 133.97413635 393.18019104 C126.38666889 391.01502515 118.80132871 388.84250291 111.21673495 386.66729456 C102.57745705 384.19000092 93.93582468 381.72097095 85.29399002 379.2526139 C67.5267013 374.17756501 49.76237857 369.09220591 32 364 C28.29193384 324.44821095 24.74672103 284.88324613 21.25664083 245.31174355 C20.74370687 239.49602509 20.23033907 233.68034506 19.7166996 227.86468887 C19.6424423 227.02389968 19.56818499 226.18311049 19.49167747 225.31684283 C19.34068637 223.60722658 19.18969504 221.89761035 19.03870348 220.18799414 C17.64166433 204.36919492 16.24610676 188.55026527 14.85103974 172.73129202 C13.57580437 158.27166736 12.29862264 143.81221533 11.02057644 129.35283886 C9.69923416 114.40342318 8.37918206 99.4538941 7.06053811 84.50424016 C6.32364201 76.15020577 5.58623605 67.79621716 4.84746361 59.44234848 C4.22225349 52.37246228 3.59825524 45.30247042 2.97584965 38.23233674 C2.65873186 34.63046314 2.34104643 31.02864195 2.02184486 27.42695236 C1.67646308 23.52966365 1.33378034 19.63214037 0.99137878 15.73458862 C0.88973378 14.59244428 0.78808877 13.45029993 0.68336362 12.27354515 C0.59239543 11.23296364 0.50142724 10.19238214 0.40770245 9.12026787 C0.32839322 8.2215033 0.24908399 7.32273874 0.16737145 6.39673889 C0.01878122 4.26894477 0 2.13297605 0 0 Z " fill="#E65100" transform="translate(74,53)"/>
<path d="M0 0 C48.18 0 96.36 0 146 0 C145.01 12.87 144.02 25.74 143 39 C142.70996094 42.77953125 142.41992188 46.5590625 142.12109375 50.453125 C141.89409046 53.38548825 141.66656525 56.31779852 141.4375 59.25 C141.37685364 60.02766724 141.31620728 60.80533447 141.25372314 61.60656738 C140.51336829 71.05811985 139.70161564 80.49233105 138.62866211 89.9128418 C138.16181611 94.10554462 137.83533702 98.28358774 137.62744141 102.49731445 C137.56435791 103.7670813 137.56435791 103.7670813 137.5 105.0625 C137.45428864 106.04416138 137.45428864 106.04416138 137.40765381 107.0456543 C137.14964214 112.17417513 136.67691424 117.23914813 136.0625 122.3359375 C134.84273756 132.88374615 134.07920486 143.45442976 133.32275391 154.04370117 C132.72593763 162.34108254 132.09045914 170.60629336 131.05859375 178.86328125 C129.5344458 191.06591225 128.69570825 203.33845284 127.72397232 215.59457016 C127.2344697 221.74980913 126.73484863 227.90423859 126.234375 234.05859375 C126.18035837 234.72355425 126.12634174 235.38851475 126.07068825 236.07362556 C125.14447206 247.45444007 124.10720297 258.81806945 122.95996094 270.1784668 C121.76309774 282.10260899 120.8578401 294.04722266 120 306 C114.78479324 308.01165808 109.57138834 309.79790753 104.19238281 311.32495117 C103.45590515 311.53687103 102.71942749 311.74879089 101.96063232 311.96713257 C99.542336 312.66216155 97.12275316 313.35259202 94.703125 314.04296875 C92.98793666 314.53490248 91.27283001 315.02712109 89.55780029 315.51960754 C85.03862236 316.81648861 80.51833464 318.10945893 75.99780273 319.40161133 C71.50045509 320.68788073 67.00417546 321.97787165 62.5078125 323.26757812 C57.2571901 324.77347194 52.00628535 326.27834999 46.75402832 327.77853394 C36.06868198 330.83061576 36.06868198 330.83061576 25.39352798 333.91810513 C23.38459624 334.50269794 21.37510206 335.08531383 19.36541748 335.66731262 C16.97813542 336.35952185 14.59201833 337.05576725 12.20733643 337.75688171 C11.1705072 338.05665421 10.13367798 338.3564267 9.06542969 338.6652832 C8.17587585 338.92525589 7.28632202 339.18522858 6.36981201 339.45307922 C4 340 4 340 0 340 C-0.33 323.5 -0.66 307 -1 290 C-6.011875 288.329375 -11.02375 286.65875 -16.1875 284.9375 C-18.74673218 284.08406006 -18.74673218 284.08406006 -21.35766602 283.21337891 C-29.63996903 280.45146358 -37.9231752 277.69230484 -46.20838928 274.93913269 C-50.33495917 273.56772478 -54.46115127 272.1951823 -58.58731079 270.82254028 C-60.61380493 270.14872523 -62.64047768 269.4754471 -64.66732788 268.80270386 C-67.52085945 267.85550368 -70.37377353 266.90646522 -73.2265625 265.95703125 C-74.08640244 265.67213837 -74.94624237 265.38724548 -75.83213806 265.09371948 C-76.61794754 264.83180817 -77.40375702 264.56989685 -78.21337891 264.30004883 C-78.89977448 264.07199051 -79.58617004 263.84393219 -80.29336548 263.60896301 C-82 263 -82 263 -84 262 C-85.15185562 257.8553636 -85.38751412 253.54298722 -85.75390625 249.26953125 C-85.81907944 248.52023849 -85.88425262 247.77094574 -85.95140076 246.99894714 C-86.08824599 245.40967151 -86.22346887 243.82025546 -86.35717773 242.23071289 C-86.55807028 239.86467162 -86.7699882 237.49979441 -86.98242188 235.13476562 C-87.11527176 233.57557934 -87.24745154 232.01633578 -87.37890625 230.45703125 C-87.44139053 229.7781636 -87.50387482 229.09929596 -87.56825256 228.39985657 C-88.25549341 219.89620247 -88 211.61519519 -88 203 C-74.14 203 -60.28 203 -46 203 C-43.67857143 221.57142857 -43.67857143 221.57142857 -44 230 C-43.06559082 230.23456909 -43.06559082 230.23456909 -42.11230469 230.47387695 C-33.33083372 232.7648687 -24.83555471 235.78995947 -16.31396484 238.89233398 C-14.42639761 239.57739607 -12.53354768 240.24784649 -10.640625 240.91796875 C-9.53235352 241.31781982 -8.42408203 241.7176709 -7.28222656 242.12963867 C-0.16005265 244.01825441 5.19726517 242.57881144 11.890625 240.15625 C12.71705505 239.86770142 13.54348511 239.57915283 14.3949585 239.28186035 C17.01701931 238.36475588 19.63366607 237.43330365 22.25 236.5 C24.88131302 235.56889782 27.51365282 234.64094228 30.14788818 233.71813965 C31.78245754 233.14477365 33.41522994 232.56625317 35.04595947 231.98205566 C38.14837119 230.88788376 40.68439318 230 44 230 C43.98912354 229.17064941 43.97824707 228.34129883 43.96704102 227.48681641 C43.90073897 218.40785659 44.30206478 209.43333183 44.9375 200.375 C45.02572828 199.02736581 45.11362007 197.67970955 45.20117188 196.33203125 C45.86931129 186.52275485 45.86931129 186.52275485 47 182 C1.79 182 -43.42 182 -90 182 C-91.155 163.128125 -92.31 144.25625 -93.5 124.8125 C-93.86544922 118.87483643 -94.23089844 112.93717285 -94.60742188 106.81958008 C-95.05175781 99.51501465 -95.05175781 99.51501465 -95.25939941 96.08500671 C-95.40378575 93.71215618 -95.54971261 91.33939905 -95.69689941 88.96672058 C-95.92077615 85.35278473 -96.13961403 81.73857363 -96.35742188 78.12426758 C-96.42300041 77.08431294 -96.48857895 76.04435831 -96.55614471 74.9728899 C-96.99255597 67.60796853 -97 60.41200145 -97 53 C-64.99 53 -32.98 53 0 53 C0 35.51 0 18.02 0 0 Z " fill="#FE6D01" transform="translate(256,85)"/>
<path d="M0 0 C64.35 0 128.7 0 195 0 C195 14.03566885 193.39660125 28.03398751 192 42 C143.49 42 94.98 42 45 42 C45.99 53.88 46.98 65.76 48 78 C48 80.31 48 82.62 48 85 C94.2 85 140.4 85 188 85 C188 111.19981093 188 111.19981093 187.09375 121.18359375 C186.90637883 123.46838559 186.72156612 125.75338842 186.5390625 128.03857422 C186.4472168 129.18412781 186.35537109 130.3296814 186.26074219 131.50994873 C185.82465699 137.3469777 185.51872334 143.18978609 185.21875 149.03515625 C185.12847534 150.77048111 185.12847534 150.77048111 185.03637695 152.54086304 C184.79397954 157.23592274 184.55625897 161.93119868 184.32275391 166.62670898 C183.62892216 180.48148351 182.77076827 194.23722043 181 208 C172.67161063 210.78392017 164.34265202 213.56612914 156.01300049 216.34627056 C152.14348703 217.63783352 148.27415789 218.92994261 144.40527344 220.22338867 C140.6579858 221.47615849 136.91018347 222.72737778 133.16204834 223.97760963 C131.7460561 224.45021373 130.33023714 224.92333739 128.91461182 225.39703941 C124.94856407 226.72396085 120.97794305 228.03561309 117.00292969 229.33541489 C114.9044719 230.03169684 112.81584398 230.75364989 110.7265625 231.47695923 C109.31790031 231.94981138 107.90905162 232.4221084 106.5 232.89379883 C105.2521875 233.32163162 104.004375 233.74946442 102.71875 234.19026184 C95.75604367 235.70635435 89.75353873 233.83249898 83.14697266 231.60742188 C82.40774567 231.36504288 81.66851868 231.12266388 80.90689087 230.87294006 C78.4902264 230.07858687 76.0771687 229.27384113 73.6640625 228.46875 C71.97654692 227.91146863 70.28882995 227.35479676 68.60092163 226.79870605 C65.0776795 225.63634328 61.55604207 224.46928925 58.03564453 223.29833984 C53.51821144 221.79576367 48.99826026 220.30095201 44.47727394 218.80910492 C40.16375553 217.38551317 35.85129423 215.95873381 31.5390625 214.53125 C30.71497517 214.25860825 29.89088783 213.98596649 29.04182816 213.70506287 C26.71952687 212.93596407 24.39796666 212.16467343 22.07666016 211.39257812 C21.04031433 211.04967491 21.04031433 211.04967491 19.98303223 210.69984436 C15.23019355 209.11509678 15.23019355 209.11509678 13 208 C11.84814438 203.8553636 11.61248588 199.54298722 11.24609375 195.26953125 C11.18092056 194.52023849 11.11574738 193.77094574 11.04859924 192.99894714 C10.91175401 191.40967151 10.77653113 189.82025546 10.64282227 188.23071289 C10.44192972 185.86467162 10.2300118 183.49979441 10.01757812 181.13476562 C9.88472824 179.57557934 9.75254846 178.01633578 9.62109375 176.45703125 C9.55860947 175.7781636 9.49612518 175.09929596 9.43174744 174.39985657 C8.74450659 165.89620247 9 157.61519519 9 149 C22.86 149 36.72 149 51 149 C53.32142857 167.57142857 53.32142857 167.57142857 53 176 C53.93440918 176.23456909 53.93440918 176.23456909 54.88769531 176.47387695 C63.66916628 178.7648687 72.16444529 181.78995947 80.68603516 184.89233398 C82.57360239 185.57739607 84.46645232 186.24784649 86.359375 186.91796875 C87.46764648 187.31781982 88.57591797 187.7176709 89.71777344 188.12963867 C96.83994735 190.01825441 102.19726517 188.57881144 108.890625 186.15625 C109.71705505 185.86770142 110.54348511 185.57915283 111.3949585 185.28186035 C114.01701931 184.36475588 116.63366607 183.43330365 119.25 182.5 C121.88131302 181.56889782 124.51365282 180.64094228 127.14788818 179.71813965 C128.78245754 179.14477365 130.41522994 178.56625317 132.04595947 177.98205566 C135.14837119 176.88788376 137.68439318 176 141 176 C140.98912354 175.17064941 140.97824707 174.34129883 140.96704102 173.48681641 C140.90073897 164.40785659 141.30206478 155.43333183 141.9375 146.375 C142.02572828 145.02736581 142.11362007 143.67970955 142.20117188 142.33203125 C142.86931129 132.52275485 142.86931129 132.52275485 144 128 C98.79 128 53.58 128 7 128 C5.845 109.1075 4.69 90.215 3.5 70.75 C3.13455078 64.80323242 2.76910156 58.85646484 2.39257812 52.72949219 C1.94824219 45.42041016 1.94824219 45.42041016 1.74060059 41.98956299 C1.59610209 39.61334212 1.45018061 37.2372075 1.30310059 34.86114502 C1.07951565 31.24454284 0.86056772 27.62768539 0.64257812 24.01074219 C0.57699959 22.96718945 0.51142105 21.9236367 0.44385529 20.84846115 C0.02920976 13.86057842 0 7.02877491 0 0 Z " fill="#FFFEFD" transform="translate(159,139)"/>
<path d="M0 0 C64.35 0 128.7 0 195 0 C195 14.03566885 193.39660125 28.03398751 192 42 C143.49 42 94.98 42 45 42 C45.99 53.88 46.98 65.76 48 78 C48 80.31 48 82.62 48 85 C64.17 85 80.34 85 97 85 C97 98.86 97 112.72 97 127 C112.51 127 128.02 127 144 127 C144 127.33 144 127.66 144 128 C98.79 128 53.58 128 7 128 C5.845 109.1075 4.69 90.215 3.5 70.75 C3.13455078 64.80323242 2.76910156 58.85646484 2.39257812 52.72949219 C1.94824219 45.42041016 1.94824219 45.42041016 1.74060059 41.98956299 C1.59610209 39.61334212 1.45018061 37.2372075 1.30310059 34.86114502 C1.07951565 31.24454284 0.86056772 27.62768539 0.64257812 24.01074219 C0.57699959 22.96718945 0.51142105 21.9236367 0.44385529 20.84846115 C0.02920976 13.86057842 0 7.02877491 0 0 Z " fill="#EEECEC" transform="translate(159,139)"/>
<path d="M0 0 C13.86 0 27.72 0 42 0 C44.32142857 18.57142857 44.32142857 18.57142857 44 27 C44.93223389 27.23565674 44.93223389 27.23565674 45.88330078 27.47607422 C54.02921521 29.60914031 61.94096787 32.32439908 69.875 35.125 C72.4335791 36.02731622 74.993631 36.92500541 77.5546875 37.8203125 C78.67343262 38.21492676 79.79217773 38.60954102 80.94482422 39.01611328 C84.28436408 40.15559343 84.28436408 40.15559343 89 41 C88.67 55.85 88.34 70.7 88 86 C82.25891633 84.72420363 76.84344624 83.43017521 71.30883789 81.58569336 C70.24366943 81.23653618 70.24366943 81.23653618 69.15698242 80.88032532 C66.84414302 80.12100509 64.53338605 79.35555729 62.22265625 78.58984375 C60.60374272 78.05667747 58.98471718 77.52385119 57.36558533 76.99134827 C53.99015939 75.8802577 50.61568298 74.76634674 47.24194336 73.65014648 C42.9133002 72.21807187 38.58296903 70.79118725 34.25200748 69.36614132 C30.91708834 68.26857426 27.58273855 67.16928684 24.24859428 66.06936836 C22.65105646 65.54237047 21.05341708 65.01568036 19.45567513 64.48930168 C17.23171547 63.75611138 15.00845377 63.02084499 12.78540039 62.28491211 C12.12412643 62.06723175 11.46285248 61.84955139 10.78153992 61.62527466 C8.45066597 60.85179513 6.19983448 60.09991724 4 59 C2.84814438 54.8553636 2.61248588 50.54298722 2.24609375 46.26953125 C2.18092056 45.52023849 2.11574738 44.77094574 2.04859924 43.99894714 C1.91175401 42.40967151 1.77653113 40.82025546 1.64282227 39.23071289 C1.44192972 36.86467162 1.2300118 34.49979441 1.01757812 32.13476562 C0.88472824 30.57557934 0.75254846 29.01633578 0.62109375 27.45703125 C0.55860947 26.7781636 0.49612518 26.09929596 0.43174744 25.39985657 C-0.25549341 16.89620247 0 8.61519519 0 0 Z " fill="#EDECEC" transform="translate(168,288)"/>
<path d="M0 0 C32.34 0 64.68 0 98 0 C98 14.03566885 96.39660125 28.03398751 95 42 C63.65 42 32.3 42 0 42 C0 28.14 0 14.28 0 0 Z " fill="#FFFEFE" transform="translate(256,139)"/>
<path d="M0 0 C15.51 0 31.02 0 47 0 C46.01 15.84 45.02 31.68 44 48 C37.296875 50.31 30.59375 52.62 23.6875 55 C21.57432373 55.73089844 19.46114746 56.46179688 17.28393555 57.21484375 C15.60998834 57.78942698 13.93592402 58.36366915 12.26171875 58.9375 C10.95684509 59.39092773 10.95684509 59.39092773 9.62561035 59.85351562 C8.79356079 60.13775391 7.96151123 60.42199219 7.10424805 60.71484375 C6.38254929 60.96355225 5.66085052 61.21226074 4.9172821 61.46850586 C3 62 3 62 0 62 C0 41.54 0 21.08 0 0 Z " fill="#FF6D00" transform="translate(256,267)"/>
<path d="M0 0 C17.16 0 34.32 0 52 0 C52 13.86 52 27.72 52 42 C35.83 42 19.66 42 3 42 C1.78409539 28.01709701 0.73769838 14.01626916 0 0 Z " fill="#E65100" transform="translate(204,182)"/>
</svg>
