<?xml version="1.0" encoding="UTF-8"?>
<svg version="1.1" xmlns="http://www.w3.org/2000/svg" width="96" height="96">
<path d="M0 0 C9.25763924 7.96903012 15.14497363 17.02566932 16.3203125 29.40234375 C16.75287538 40.37502224 14.14884075 50.35315521 6.9140625 58.7578125 C-1.6998052 67.73513453 -11.03311106 72.5661049 -23.625 73.0625 C-35.88024041 72.7994456 -45.09047272 68.47311896 -53.6796875 59.9609375 C-61.49273008 51.44821947 -64.4913831 41.33384814 -64.24609375 29.90625 C-63.10320089 17.98544342 -58.1963571 9.35658802 -49.5 1.375 C-35.42491257 -9.96675572 -14.67620308 -10.93327881 0 0 Z " fill="#2C2C2C" transform="translate(71.9375,15.3125)"/>
<path d="M0 0 C7 0 7 0 8.86328125 1.29296875 C9.34152344 1.91816406 9.81976563 2.54335938 10.3125 3.1875 C10.8796875 3.909375 11.446875 4.63125 12.03125 5.375 C12.6809375 6.24125 13.330625 7.1075 14 8 C14.86190687 9.08546396 15.72666675 10.16866652 16.59375 11.25 C17.50133769 12.39477407 18.40759026 13.54060792 19.3125 14.6875 C19.96182495 15.5067395 19.96182495 15.5067395 20.62426758 16.3425293 C23.00576247 19.43072987 24.75689046 22.2981434 26 26 C24.02 26.99 24.02 26.99 22 28 C16.49601017 21.99721109 11.72531447 15.63202031 7 9 C6.67 16.59 6.34 24.18 6 32 C4.02 32 2.04 32 0 32 C0 21.44 0 10.88 0 0 Z " fill="#FBFBFB" transform="translate(32,32)"/>
<path d="M0 0 C2.93200474 2.85276137 5.64315404 5.65079784 8 9 C7.34 10.32 6.68 11.64 6 13 C2.54804233 11.5741914 0.8985744 9.90253666 -1.25 6.875 C-2.03117187 5.78832031 -2.03117187 5.78832031 -2.828125 4.6796875 C-3.21484375 4.12539063 -3.6015625 3.57109375 -4 3 C-2.68 2.01 -1.36 1.02 0 0 Z " fill="#9B9A9B" transform="translate(58,57)"/>
<path d="M0 0 C1.98 0 3.96 0 6 0 C6 3.63 6 7.26 6 11 C4.02 11 2.04 11 0 11 C0 7.37 0 3.74 0 0 Z " fill="#F8F8F8" transform="translate(58,32)"/>
<path d="M0 0 C1.98 0 3.96 0 6 0 C6 2.64 6 5.28 6 8 C4.02 8 2.04 8 0 8 C0 5.36 0 2.72 0 0 Z " fill="#585858" transform="translate(58,43)"/>
<path d="M0 0 C1.32 1.32 2.64 2.64 4 4 C3.34 5.32 2.68 6.64 2 8 C-1.16115776 6.63016497 -1.9927092 6.0109362 -4 3 C-2.68 2.67 -1.36 2.34 0 2 C0 1.34 0 0.68 0 0 Z " fill="#676667" transform="translate(62,62)"/>
<path d="M0 0 C0.99 0.99 1.98 1.98 3 3 C2.34 4.32 1.68 5.64 1 7 C-2.875 5.25 -2.875 5.25 -4 3 C-2.68 3 -1.36 3 0 3 C0 2.01 0 1.02 0 0 Z " fill="#D2D1D2" transform="translate(55,53)"/>
<path d="M0 0 C1.98 0 3.96 0 6 0 C6 1.32 6 2.64 6 4 C4.02 4 2.04 4 0 4 C0 2.68 0 1.36 0 0 Z " fill="#858585" transform="translate(58,43)"/>
<path d="M0 0 C1.98 0 3.96 0 6 0 C6 1.32 6 2.64 6 4 C4.02 4 2.04 4 0 4 C0 2.68 0 1.36 0 0 Z " fill="#C3C3C3" transform="translate(58,39)"/>
<path d="M0 0 C1.98 0 3.96 0 6 0 C6 0.99 6 1.98 6 3 C3.69 3.66 1.38 4.32 -1 5 C-0.67 3.35 -0.34 1.7 0 0 Z " fill="#3C3C3C" transform="translate(58,51)"/>
</svg>
