<?xml version="1.0" encoding="UTF-8"?>
<svg version="1.1" xmlns="http://www.w3.org/2000/svg" width="512" height="512">
<path d="M0 0 C0.88512268 0.00054382 1.77024536 0.00108765 2.68218994 0.00164795 C16.32113057 0.04017168 29.34952699 0.71367586 42.5625 4.375 C43.71419678 4.68050781 43.71419678 4.68050781 44.88916016 4.9921875 C72.88606916 12.63575061 94.42798497 30.05828283 114.47265625 50.33984375 C115.00914291 50.88124496 115.54562958 51.42264618 116.09837341 51.98045349 C118.80735089 54.71468459 121.50771585 57.45627651 124.19116211 60.21557617 C133.19468269 69.39907833 142.87173682 78.29025773 154.625 83.8125 C155.29926025 84.13613525 155.97352051 84.45977051 156.66821289 84.79321289 C174.03482899 92.86577469 193.7688897 93.46437126 211.69921875 86.9296875 C220.67781354 83.39173276 228.16967376 78.61665758 235.5625 72.375 C236.85414063 71.30958984 236.85414063 71.30958984 238.171875 70.22265625 C244.7619046 64.56382649 250.17558527 58.14875874 255.5625 51.375 C256.78157355 54.87723213 256.33477976 56.96667909 255.19140625 60.453125 C254.70716187 61.93546631 254.70716187 61.93546631 254.21313477 63.44775391 C253.67450806 65.02049072 253.67450806 65.02049072 253.125 66.625 C252.75882568 67.70313965 252.39265137 68.7812793 252.01538086 69.89208984 C245.5704676 88.38378915 236.27362974 105.26678473 222.5625 119.375 C221.81613281 120.19484375 221.06976563 121.0146875 220.30078125 121.859375 C198.58511534 144.97489376 166.25852278 153.67190989 135.44921875 154.66015625 C94.41783216 155.42004682 57.46820152 144.88789373 27.37109375 116.04296875 C25.26891337 114.04604358 23.15400559 112.16471342 20.94921875 110.2890625 C16.40294212 106.33924708 12.23796083 102.03843586 8.03637695 97.73193359 C-10.87125039 78.35540402 -29.38432994 63.4016866 -57.875 62.9375 C-81.60942877 63.1343655 -100.52950274 75.31418011 -116.98657227 91.59423828 C-119.67894073 94.33737395 -122.0444924 97.12436967 -124.25390625 100.2734375 C-124.97449219 101.29695313 -125.69507812 102.32046875 -126.4375 103.375 C-126.7675 103.375 -127.0975 103.375 -127.4375 103.375 C-126.87153827 97.64463749 -125.78366865 92.5104715 -123.9375 87.0625 C-123.54763916 85.90886963 -123.54763916 85.90886963 -123.14990234 84.73193359 C-112.34210047 53.84447207 -93.02156037 27.4755756 -63.4375 12.375 C-53.45112923 7.7744128 -43.23552063 4.49088366 -32.4375 2.375 C-31.54571045 2.19694824 -30.6539209 2.01889648 -29.73510742 1.83544922 C-19.83420219 0.07616173 -10.02346884 -0.02313701 0 0 Z " fill="#00ACC1" transform="translate(127.4375,255.625)"/>
<path d="M0 0 C0.71800781 0.66386719 1.43601562 1.32773438 2.17578125 2.01171875 C3.54283133 3.26396213 4.91838037 4.50806321 6.33300781 5.70629883 C10.57757162 9.31417806 14.5522498 13.13114334 18.4453125 17.11328125 C18.96024765 17.63842819 19.4751828 18.16357513 20.00572205 18.70463562 C22.14014327 20.88409435 24.27276441 23.06496166 26.38964844 25.26147461 C43.00626209 42.46932575 61.27461863 54.71385171 85.98217773 55.71508789 C108.34047112 56.07936224 127.56670043 46.18585498 143.49047852 30.80639648 C148.37932903 25.96613837 152.69614515 20.92197167 156.6875 15.3125 C157.0175 15.3125 157.3475 15.3125 157.6875 15.3125 C157.12153827 21.04286251 156.03366865 26.1770285 154.1875 31.625 C153.92759277 32.39408691 153.66768555 33.16317383 153.39990234 33.95556641 C142.58728785 64.85678184 123.21815624 91.31580933 93.59423828 106.40576172 C77.24400219 114.18102124 58.32691994 118.40678872 40.26171875 118.515625 C39.48054184 118.52263931 38.69936493 118.52965363 37.89451599 118.53688049 C35.38795142 118.55428903 32.88162279 118.5607322 30.375 118.5625 C29.52057312 118.56317474 28.66614624 118.56384949 27.78582764 118.56454468 C-14.04440654 118.51194596 -48.52204787 103.60556034 -78.3125 74.3125 C-80.29001444 72.32499463 -82.26395784 70.33435085 -84.234375 68.33984375 C-84.77012146 67.798936 -85.30586792 67.25802826 -85.85784912 66.70072937 C-88.56318459 63.96855108 -91.25975992 61.22879956 -93.94042969 58.47241211 C-102.96401207 49.2690168 -112.6434056 40.38067088 -124.4375 34.875 C-125.11506348 34.55136475 -125.79262695 34.22772949 -126.49072266 33.89428711 C-143.08782387 26.17117625 -162.00399104 25.10623593 -179.38427734 31.01708984 C-198.3849861 38.04996341 -213.13773528 51.41766829 -225.3125 67.3125 C-226.53157355 63.81026787 -226.08477976 61.72082091 -224.94140625 58.234375 C-224.61857666 57.24614746 -224.29574707 56.25791992 -223.96313477 55.23974609 C-223.42450806 53.66700928 -223.42450806 53.66700928 -222.875 52.0625 C-222.32573853 50.44529053 -222.32573853 50.44529053 -221.76538086 48.79541016 C-215.3271377 30.32284865 -206.03889188 13.39015782 -192.3125 -0.6875 C-191.4875 -1.55375 -190.6625 -2.42 -189.8125 -3.3125 C-188.9875 -4.09625 -188.1625 -4.88 -187.3125 -5.6875 C-186.72726563 -6.26757812 -186.14203125 -6.84765625 -185.5390625 -7.4453125 C-136.46044358 -53.96965386 -47.24904182 -42.35127529 0 0 Z " fill="#00ACC1" transform="translate(354.3125,137.6875)"/>
</svg>
