<?xml version="1.0" encoding="UTF-8"?>
<svg version="1.1" xmlns="http://www.w3.org/2000/svg" width="512" height="512">
<path d="M0 0 C120.12 0 240.24 0 364 0 C362.23534452 22.35230278 360.46541176 44.69442032 358.48933029 67.02752304 C358.08487885 71.60326612 357.68286293 76.17922181 357.28094482 80.75518799 C356.62270803 88.24588652 355.96268158 95.73642623 355.30195151 103.22690521 C354.76507103 109.31378286 354.22890218 115.40072284 353.6932106 121.48770523 C353.61619568 122.36281171 353.53918076 123.23791818 353.45983205 124.13954303 C353.30328454 125.91840472 353.14673888 127.69726658 352.99019505 129.47612859 C351.53438135 146.01819208 350.07652748 162.56007525 348.61790933 179.10189165 C347.36826155 193.27433688 346.1202893 207.44692884 344.87353516 221.61962891 C343.4185032 238.15994869 341.96253238 254.70018536 340.50500023 271.24028504 C340.34971858 273.00244586 340.19443779 274.76460676 340.03915787 276.52676773 C339.96278846 277.39341957 339.88641904 278.2600714 339.80773541 279.15298542 C339.27114009 285.24305628 338.73520428 291.33318496 338.19952011 297.42333603 C337.54823584 304.8274873 336.89589507 312.23154458 336.24220763 319.63548408 C335.90918532 323.40772152 335.57662658 327.17999826 335.24534225 330.95238876 C334.88617298 335.04212111 334.52472667 339.13164904 334.16305542 343.22116089 C334.00707439 345.0033083 334.00707439 345.0033083 333.84794223 346.8214587 C333.3379843 352.56557701 332.76299333 358.28379097 332 364 C312.99481099 369.51355475 293.98422355 375.00809436 274.9670496 380.48017216 C266.1367872 383.0215046 257.30838621 385.56898317 248.48413086 388.13110352 C240.79118425 390.36473157 233.09497013 392.58665617 225.39464086 394.79470438 C221.31902901 395.96381303 217.24526854 397.13863734 213.17537117 398.3275013 C209.34060697 399.44747988 205.50164621 400.55169517 201.65898132 401.64424706 C200.25332435 402.04684181 198.84926113 402.45505252 197.44703484 402.86943817 C189.97565265 405.07374617 183.65719397 406.91207465 176 405 C174.98557799 404.74858214 173.97115599 404.49716429 172.92599392 404.23812771 C169.18745229 403.25386455 165.47304477 402.19639632 161.75952148 401.12280273 C160.3396698 400.71809798 158.91963586 400.31403219 157.49943542 399.91055298 C153.66764261 398.82000244 149.83844326 397.72059434 146.00966525 396.61951327 C141.99930736 395.4678698 137.98659784 394.32447918 133.97413635 393.18019104 C126.38666889 391.01502515 118.80132871 388.84250291 111.21673495 386.66729456 C102.57745705 384.19000092 93.93582468 381.72097095 85.29399002 379.2526139 C67.5267013 374.17756501 49.76237857 369.09220591 32 364 C28.29193384 324.44821095 24.74672103 284.88324613 21.25664083 245.31174355 C20.74370687 239.49602509 20.23033907 233.68034506 19.7166996 227.86468887 C19.6424423 227.02389968 19.56818499 226.18311049 19.49167747 225.31684283 C19.34068637 223.60722658 19.18969504 221.89761035 19.03870348 220.18799414 C17.64166433 204.36919492 16.24610676 188.55026527 14.85103974 172.73129202 C13.57580437 158.27166736 12.29862264 143.81221533 11.02057644 129.35283886 C9.69923416 114.40342318 8.37918206 99.4538941 7.06053811 84.50424016 C6.32364201 76.15020577 5.58623605 67.79621716 4.84746361 59.44234848 C4.22225349 52.37246228 3.59825524 45.30247042 2.97584965 38.23233674 C2.65873186 34.63046314 2.34104643 31.02864195 2.02184486 27.42695236 C1.67646308 23.52966365 1.33378034 19.63214037 0.99137878 15.73458862 C0.88973378 14.59244428 0.78808877 13.45029993 0.68336362 12.27354515 C0.59239543 11.23296364 0.50142724 10.19238214 0.40770245 9.12026787 C0.32839322 8.2215033 0.24908399 7.32273874 0.16737145 6.39673889 C0.01878122 4.26894477 0 2.13297605 0 0 Z " fill="#0277BD" transform="translate(74,53)"/>
<path d="M0 0 C64.35 0 128.7 0 195 0 C192.73948096 42.94986179 192.73948096 42.94986179 191.68164062 59.20471191 C190.68458078 74.54857844 189.76863478 89.89304511 189 105.25 C188.21930634 120.80968145 187.19810241 136.34745039 186.10986328 151.88842773 C185.5042713 160.54873835 184.91163939 169.20865463 184.3984375 177.875 C184.35289734 178.64353806 184.30735718 179.41207611 184.26043701 180.2039032 C184.05076712 183.76563091 183.84587813 187.32757552 183.64648438 190.88989258 C183.57494141 192.12892334 183.50339844 193.3679541 183.4296875 194.64453125 C183.37022949 195.71034424 183.31077148 196.77615723 183.24951172 197.87426758 C182.97785515 201.27741728 182.49503211 204.6228631 182 208 C173.67161063 210.78392017 165.34265202 213.56612914 157.01300049 216.34627056 C153.14348703 217.63783352 149.27415789 218.92994261 145.40527344 220.22338867 C141.6579858 221.47615849 137.91018347 222.72737778 134.16204834 223.97760963 C132.7460561 224.45021373 131.33023714 224.92333739 129.91461182 225.39703941 C125.94856407 226.72396085 121.97794305 228.03561309 118.00292969 229.33541489 C115.9044719 230.03169684 113.81584398 230.75364989 111.7265625 231.47695923 C110.31790031 231.94981138 108.90905162 232.4221084 107.5 232.89379883 C106.2521875 233.32163162 105.004375 233.74946442 103.71875 234.19026184 C96.75604367 235.70635435 90.75353873 233.83249898 84.14697266 231.60742188 C83.40774567 231.36504288 82.66851868 231.12266388 81.90689087 230.87294006 C79.4902264 230.07858687 77.0771687 229.27384113 74.6640625 228.46875 C72.97654692 227.91146863 71.28882995 227.35479676 69.60092163 226.79870605 C66.0776795 225.63634328 62.55604207 224.46928925 59.03564453 223.29833984 C54.51821144 221.79576367 49.99826026 220.30095201 45.47727394 218.80910492 C41.16375553 217.38551317 36.85129423 215.95873381 32.5390625 214.53125 C31.71497517 214.25860825 30.89088783 213.98596649 30.04182816 213.70506287 C27.71952687 212.93596407 25.39796666 212.16467343 23.07666016 211.39257812 C22.04031433 211.04967491 22.04031433 211.04967491 20.98303223 210.69984436 C16.23019355 209.11509678 16.23019355 209.11509678 14 208 C13.52768334 204.95926853 13.19132984 201.99908265 12.9375 198.9375 C12.85516113 198.00736084 12.77282227 197.07722168 12.68798828 196.11889648 C11.37104918 180.4212432 11 164.75189335 11 149 C25.19 149 39.38 149 54 149 C54 157.91 54 166.82 54 176 C57.63 176.99 61.26 177.98 65 179 C67.40128378 179.79533654 69.79363304 180.61867458 72.171875 181.48046875 C74.03392578 182.14272461 74.03392578 182.14272461 75.93359375 182.81835938 C77.85283034 183.50499768 79.77065035 184.19501798 81.68603516 184.89233398 C83.57360239 185.57739607 85.46645232 186.24784649 87.359375 186.91796875 C88.46764648 187.31781982 89.57591797 187.7176709 90.71777344 188.12963867 C97.83994735 190.01825441 103.19726517 188.57881144 109.890625 186.15625 C110.71705505 185.86770142 111.54348511 185.57915283 112.3949585 185.28186035 C115.01701931 184.36475588 117.63366607 183.43330365 120.25 182.5 C122.88131302 181.56889782 125.51365282 180.64094228 128.14788818 179.71813965 C129.78245754 179.14477365 131.41522994 178.56625317 133.04595947 177.98205566 C136.14837119 176.88788376 138.68439318 176 142 176 C141.98912354 175.17064941 141.97824707 174.34129883 141.96704102 173.48681641 C141.90073897 164.40785659 142.30206478 155.43333183 142.9375 146.375 C143.02572828 145.02736581 143.11362007 143.67970955 143.20117188 142.33203125 C143.86931129 132.52275485 143.86931129 132.52275485 145 128 C113.98 128 82.96 128 51 128 C50.26024529 122.08196229 49.72216292 116.36875534 49.4375 110.4375 C49.39431641 109.64537109 49.35113281 108.85324219 49.30664062 108.03710938 C48.92421433 100.3339511 49 92.74427337 49 85 C81.34 85 113.68 85 147 85 C147.33 77.41 147.66 69.82 148 62 C148.66 55.4 149.32 48.8 150 42 C101.49 42 52.98 42 3 42 C0 12 0 12 0 0 Z " fill="#FEFEFE" transform="translate(158,139)"/>
<path d="M0 0 C48.18 0 96.36 0 146 0 C146 10.10980157 146 10.10980157 145.43383789 15.14379883 C145.3116539 16.26485519 145.18946991 17.38591156 145.06358337 18.54093933 C144.93045242 19.73012466 144.79732147 20.91931 144.66015625 22.14453125 C142.99262506 37.63943369 141.68241563 53.15303264 140.4375 68.6875 C140.22749339 71.27411128 140.01720724 73.86069987 139.80664062 76.44726562 C138.99385015 86.46524266 138.18322527 96.48308221 137.43798828 106.50634766 C137.3488063 107.69855423 137.25962433 108.8907608 137.16773987 110.11909485 C137.00064854 112.36545908 136.83621165 114.61202294 136.6749115 116.85881042 C136.60051346 117.85906754 136.52611542 118.85932465 136.44946289 119.88989258 C136.38642471 120.76003494 136.32338654 121.63017731 136.25843811 122.52668762 C136 125 136 125 135.51144409 127.37719727 C134.88177194 130.60630064 134.62563714 133.79485945 134.36743164 137.07495117 C134.31197678 137.76853226 134.25652191 138.46211334 134.1993866 139.17671204 C134.07968002 140.67869474 133.96134149 142.18078698 133.84422493 143.68297386 C133.65736938 146.07870001 133.46677805 148.47410394 133.2752533 150.86946106 C132.86768968 155.97521396 132.46479847 161.08132992 132.0625 166.1875 C131.59916159 172.06704192 131.13379624 177.94641136 130.663908 183.82543373 C130.4788754 186.15226146 130.29720558 188.47933425 130.11573792 190.80644226 C129.4629633 199.05552525 128.66423203 207.27357576 127.72352695 215.49481964 C126.93666281 222.4170478 126.33228674 229.34803356 125.78125 236.29296875 C125.6230904 238.2414448 125.46493022 240.18992081 125.30673981 242.13839436 C125.09000078 244.81633472 124.87572467 247.49446988 124.66143799 250.17260742 C124.18414282 256.12968415 123.7008645 262.0862806 123.21875 268.04296875 C123.11618896 269.31316864 123.01362793 270.58336853 122.90795898 271.89205933 C121.98636192 283.26561358 121.00652857 294.63367776 120 306 C113.7963764 308.43011245 107.54187427 310.37195266 101.13354492 312.1862793 C100.0740564 312.48907806 99.01456787 312.79187683 97.92297363 313.10385132 C94.44309569 314.09736637 90.96184934 315.08598313 87.48046875 316.07421875 C85.05523165 316.76477983 82.63004624 317.45552245 80.20491028 318.1464386 C75.13438678 319.59015891 70.0631815 321.03145954 64.99145508 322.47094727 C59.12907057 324.13489936 53.26822113 325.80417579 47.40810889 327.47611111 C41.76006711 329.08734488 36.1107778 330.69416931 30.4609623 332.29917336 C28.05997115 332.98177752 25.65932356 333.66559127 23.25902367 334.35062218 C19.91357309 335.30484181 16.56673779 336.25403821 13.21948242 337.2019043 C12.22360611 337.48706406 11.2277298 337.77222382 10.20167542 338.06602478 C8.83711716 338.45077972 8.83711716 338.45077972 7.44499207 338.8433075 C6.25902073 339.1803698 6.25902073 339.1803698 5.04909039 339.52424145 C3 340 3 340 0 340 C-0.33 323.17 -0.66 306.34 -1 289 C3.91390625 287.38609375 8.8278125 285.7721875 13.890625 284.109375 C17.02605115 283.07945594 20.16147217 282.04952129 23.296875 281.01953125 C28.2603672 279.38900952 33.22387709 277.75854176 38.1875 276.12841797 C42.1946535 274.8124082 46.20172123 273.49613757 50.2087326 272.17969513 C51.7282997 271.6805134 53.24789634 271.18142159 54.76752472 270.68242645 C56.21757378 270.2062667 57.66757321 269.72995579 59.11751938 269.25348282 C60.49350406 268.80144263 61.86965129 268.34989686 63.24597549 267.89889145 C66.36560166 266.87493689 69.47897338 265.8362441 72.58581543 264.77404785 C73.66061157 264.40678589 74.73540771 264.03952393 75.84277344 263.66113281 C77.23807281 263.17764374 77.23807281 263.17764374 78.66156006 262.68438721 C81 262 81 262 84 262 C84.51511546 252.84230873 85.01899091 243.68409816 85.50497437 234.52481079 C85.75091479 229.89202941 85.99910784 225.25936944 86.24731445 220.62670898 C86.37324238 218.26673227 86.4982552 215.90670654 86.62231445 213.54663086 C87.35245799 199.67583789 88.20598866 185.82545737 89.26623535 171.97589111 C90.08213971 161.19838662 90.69006148 150.41368638 91.26177979 139.62084961 C91.56955451 133.82626083 91.88818877 128.03227007 92.20703125 122.23828125 C92.27170593 121.06226349 92.33638062 119.88624573 92.40301514 118.67459106 C93.0395275 107.16798905 93.71943016 95.66421719 94.42996216 84.16195679 C94.55909457 82.06846 94.68710122 79.97489345 94.81393433 77.8812561 C94.98988926 74.98312508 95.17004701 72.08528741 95.3515625 69.1875 C95.40249557 68.3399968 95.45342865 67.49249359 95.50590515 66.61930847 C95.55632462 65.83099136 95.60674408 65.04267426 95.65869141 64.23046875 C95.70071686 63.55395264 95.74274231 62.87743652 95.78604126 62.18041992 C96.05525266 59.43692878 96.54680657 56.71916056 97 54 C32.65 54 -31.7 54 -98 54 C-98 53.67 -98 53.34 -98 53 C-65.66 53 -33.32 53 0 53 C0 35.51 0 18.02 0 0 Z " fill="#049BE4" transform="translate(256,85)"/>
<path d="M0 0 C14.19 0 28.38 0 43 0 C43 8.91 43 17.82 43 27 C46.63 27.99 50.26 28.98 54 30 C56.42367382 30.78606472 58.83923967 31.59800248 61.2421875 32.4453125 C61.85845001 32.66065643 62.47471252 32.87600037 63.10964966 33.09786987 C65.03269846 33.77003753 66.95402736 34.44692388 68.875 35.125 C71.4335791 36.02731622 73.993631 36.92500541 76.5546875 37.8203125 C77.67343262 38.21492676 78.79217773 38.60954102 79.94482422 39.01611328 C83.28436408 40.15559343 83.28436408 40.15559343 88 41 C87.67 55.85 87.34 70.7 87 86 C81.25891633 84.72420363 75.84344624 83.43017521 70.30883789 81.58569336 C69.24366943 81.23653618 69.24366943 81.23653618 68.15698242 80.88032532 C65.84414302 80.12100509 63.53338605 79.35555729 61.22265625 78.58984375 C59.60374272 78.05667747 57.98471718 77.52385119 56.36558533 76.99134827 C52.99015939 75.8802577 49.61568298 74.76634674 46.24194336 73.65014648 C41.9133002 72.21807187 37.58296903 70.79118725 33.25200748 69.36614132 C29.91708834 68.26857426 26.58273855 67.16928684 23.24859428 66.06936836 C21.65105646 65.54237047 20.05341708 65.01568036 18.45567513 64.48930168 C16.23171547 63.75611138 14.00845377 63.02084499 11.78540039 62.28491211 C11.12412643 62.06723175 10.46285248 61.84955139 9.78153992 61.62527466 C7.45066597 60.85179513 5.19983448 60.09991724 3 59 C2.52768334 55.95926853 2.19132984 52.99908265 1.9375 49.9375 C1.85516113 49.00736084 1.77282227 48.07722168 1.68798828 47.11889648 C0.37104918 31.4212432 0 15.75189335 0 0 Z " fill="#ECEDED" transform="translate(169,288)"/>
<path d="M0 0 C32.34 0 64.68 0 98 0 C98 13.86 98 27.72 98 42 C66.65 42 35.3 42 3 42 C0 12 0 12 0 0 Z " fill="#EDEDED" transform="translate(158,139)"/>
<path d="M0 0 C15.51 0 31.02 0 47 0 C46.01 15.84 45.02 31.68 44 48 C37.296875 50.31 30.59375 52.62 23.6875 55 C21.57432373 55.73089844 19.46114746 56.46179688 17.28393555 57.21484375 C15.60998834 57.78942698 13.93592402 58.36366915 12.26171875 58.9375 C10.95684509 59.39092773 10.95684509 59.39092773 9.62561035 59.85351562 C8.79356079 60.13775391 7.96151123 60.42199219 7.10424805 60.71484375 C6.38254929 60.96355225 5.66085052 61.21226074 4.9172821 61.46850586 C3 62 3 62 0 62 C0 41.54 0 21.08 0 0 Z " fill="#039BE5" transform="translate(256,267)"/>
<path d="M0 0 C48.51 0 97.02 0 147 0 C147 5.29030766 146.9872985 10.30788211 146.59765625 15.5390625 C146.51193359 16.69664062 146.42621094 17.85421875 146.33789062 19.046875 C146.24701172 20.22765625 146.15613281 21.4084375 146.0625 22.625 C145.93198242 24.40777344 145.93198242 24.40777344 145.79882812 26.2265625 C145.3731652 31.87684372 144.80296852 37.37922038 144 43 C127.83 43 111.66 43 95 43 C95 29.14 95 15.28 95 1 C63.65 1 32.3 1 0 1 C0 0.67 0 0.34 0 0 Z " fill="#089BE4" transform="translate(161,181)"/>
<path d="M0 0 C16.17 0 32.34 0 49 0 C49 13.86 49 27.72 49 42 C64.51 42 80.02 42 96 42 C96 42.33 96 42.66 96 43 C64.98 43 33.96 43 2 43 C1.26024529 37.08196229 0.72216292 31.36875534 0.4375 25.4375 C0.39431641 24.64537109 0.35113281 23.85324219 0.30664062 23.03710938 C-0.07578567 15.3339511 0 7.74427337 0 0 Z " fill="#E9ECED" transform="translate(207,224)"/>
</svg>
