<?xml version="1.0" encoding="UTF-8"?>
<svg version="1.1" xmlns="http://www.w3.org/2000/svg" width="512" height="512">
<path d="M0 0 C1.69125666 -0.00599229 3.38251059 -0.01279944 5.07376099 -0.02035522 C9.64848423 -0.0379543 14.22313255 -0.04270811 18.79788637 -0.0439868 C21.66297836 -0.04541278 24.52805158 -0.04969088 27.39313889 -0.05498123 C37.40858916 -0.07346361 47.42398636 -0.08165437 57.43945312 -0.08007812 C66.74218532 -0.07887825 76.04468495 -0.09995505 85.34735835 -0.13156545 C93.36045779 -0.15781334 101.37348169 -0.16844182 109.38662374 -0.16716731 C114.1607319 -0.16666003 118.93463333 -0.17221194 123.70869827 -0.19352341 C128.2052029 -0.21304907 132.70130668 -0.21293356 137.19782639 -0.19849014 C138.8363479 -0.19641835 140.47489545 -0.20100412 142.1133728 -0.21321106 C163.65797792 -0.36316267 182.48743917 6.12795485 198.24365234 21.29052734 C213.70014022 37.3521632 219.90880992 56.06665403 219.71459961 78.08422852 C219.18882159 96.51156275 212.5909501 112.55477843 200.24365234 126.29052734 C199.72544922 126.90154297 199.20724609 127.51255859 198.67333984 128.14208984 C188.67964351 139.14017777 173.570173 146.25991721 159.24365234 149.29052734 C160.48115234 149.68240234 161.71865234 150.07427734 162.99365234 150.47802734 C184.58551337 157.77668459 201.74089409 169.67490441 212.24365234 190.29052734 C220.2198951 208.20137424 222.76681689 228.84597581 216.62255859 247.81396484 C211.66799107 260.30565067 205.97102167 269.94996063 196.24365234 279.29052734 C195.22464844 280.30373047 195.22464844 280.30373047 194.18505859 281.33740234 C179.13825584 295.47701741 159.52888106 299.87808738 139.48583984 299.56005859 C120.39427668 298.85617423 102.45591044 289.91352921 89.24365234 276.29052734 C80.70731157 266.6855149 74.66936429 255.65886085 71.24365234 243.29052734 C71.24218578 243.99637938 71.24071922 244.70223143 71.23920822 245.42947292 C71.20200941 262.6767461 71.14282323 279.92380714 71.0597496 297.17092037 C71.02009374 305.51181764 70.98763343 313.8526224 70.97265625 322.19360352 C70.95956944 329.47131211 70.93242792 336.74881599 70.88903928 344.02640921 C70.86658084 347.87289507 70.85073214 351.71912995 70.85176849 355.56568718 C70.85104472 381.44427482 69.52050128 404.0934091 51.24365234 424.29052734 C50.56689453 425.06009766 49.89013672 425.82966797 49.19287109 426.62255859 C37.12668763 439.57109551 19.38231679 447.9184225 1.64208984 448.62646484 C-19.9265579 448.95369367 -39.85161579 444.79061301 -55.80078125 429.35644531 C-57.1355066 428.01709353 -58.44669906 426.65440985 -59.75634766 425.29052734 C-60.76955078 424.27152344 -60.76955078 424.27152344 -61.80322266 423.23193359 C-76.08023813 408.03891491 -80.47125103 388.80903719 -80.06103516 368.61474609 C-79.23481645 349.47856501 -70.46660659 331.54879972 -56.75634766 318.29052734 C-45.44549064 308.34296568 -33.17103543 302.91552279 -18.75634766 299.29052734 C-19.85591797 298.92701172 -20.95548828 298.56349609 -22.08837891 298.18896484 C-45.51093524 290.29384045 -62.58893368 277.7013241 -73.75634766 255.29052734 C-75.34789518 251.67766725 -76.65066452 248.07894692 -77.75634766 244.29052734 C-78.09279297 243.20191406 -78.09279297 243.20191406 -78.43603516 242.09130859 C-83.52488785 222.11930453 -78.82757696 201.53937773 -68.81201172 184.03710938 C-58.82376818 167.51169442 -42.87254133 157.00845097 -24.75634766 151.29052734 C-22.75587635 150.62527627 -20.75576567 149.95893744 -18.75634766 149.29052734 C-19.62775391 149.07138672 -20.49916016 148.85224609 -21.39697266 148.62646484 C-41.79982555 143.19453648 -59.21494583 132.10234403 -70.01025391 113.53271484 C-80.05168487 95.20319065 -83.20439058 74.2759806 -77.66577148 53.91137695 C-74.42082491 43.29341022 -69.18401599 33.56190648 -61.75634766 25.29052734 C-61.02802734 24.46939453 -60.29970703 23.64826172 -59.54931641 22.80224609 C-43.25086625 5.45058429 -22.96186901 -0.01627409 0 0 Z M70.24365234 150.29052734 C70.24365234 170.09052734 70.24365234 189.89052734 70.24365234 210.29052734 C70.57365234 210.29052734 70.90365234 210.29052734 71.24365234 210.29052734 C71.42927734 209.26958984 71.42927734 209.26958984 71.61865234 208.22802734 C75.65286626 189.26722195 86.32698196 173.38341641 102.13427734 162.22412109 C110.28777057 157.15379554 118.96345402 153.67865964 128.24365234 151.29052734 C128.24365234 150.96052734 128.24365234 150.63052734 128.24365234 150.29052734 C109.10365234 150.29052734 89.96365234 150.29052734 70.24365234 150.29052734 Z " fill="#7B4DFE" transform="translate(196.75634765625,31.70947265625)"/>
<path d="M0 0 C1.69125666 -0.00599229 3.38251059 -0.01279944 5.07376099 -0.02035522 C9.64848423 -0.0379543 14.22313255 -0.04270811 18.79788637 -0.0439868 C21.66297836 -0.04541278 24.52805158 -0.04969088 27.39313889 -0.05498123 C37.40858916 -0.07346361 47.42398636 -0.08165437 57.43945312 -0.08007812 C66.74218532 -0.07887825 76.04468495 -0.09995505 85.34735835 -0.13156545 C93.36045779 -0.15781334 101.37348169 -0.16844182 109.38662374 -0.16716731 C114.1607319 -0.16666003 118.93463333 -0.17221194 123.70869827 -0.19352341 C128.2052029 -0.21304907 132.70130668 -0.21293356 137.19782639 -0.19849014 C138.8363479 -0.19641835 140.47489545 -0.20100412 142.1133728 -0.21321106 C163.65797792 -0.36316267 182.48743917 6.12795485 198.24365234 21.29052734 C213.70014022 37.3521632 219.90880992 56.06665403 219.71459961 78.08422852 C219.18882159 96.51156275 212.5909501 112.55477843 200.24365234 126.29052734 C199.72544922 126.90154297 199.20724609 127.51255859 198.67333984 128.14208984 C187.87333531 140.02752197 170.17322138 148.73491759 154.2121582 149.70019531 C152.31550887 149.7796954 150.41837901 149.84824194 148.52099609 149.90771484 C147.47660873 149.94524872 146.43222137 149.98278259 145.35618591 150.02145386 C132.50841852 150.44113213 119.65936623 150.4438989 106.80615234 150.41552734 C105.4523418 150.41323978 104.09853117 150.41100264 102.74472046 150.40881348 C94.4794122 150.39402774 86.21422128 150.36372911 77.94899273 150.32498169 C73.50677255 150.30430546 69.06455986 150.2859878 64.62231445 150.27160645 C53.59986256 150.23586257 42.57771583 150.18571866 31.55550289 150.10341072 C26.58005068 150.06639343 21.60475157 150.03537001 16.62918091 150.02008057 C11.9047068 150.00501701 7.18073724 149.97061941 2.45648956 149.92234421 C0.71349664 149.9076503 -1.02956651 149.89948724 -2.77262115 149.89860916 C-25.34095123 149.87629429 -44.35049743 142.63949277 -60.51806641 126.54052734 C-75.55970124 109.5870155 -81.30799065 89.14962601 -79.97949219 66.79003906 C-78.60435581 51.38670619 -72.07741004 36.78396193 -61.75634766 25.29052734 C-61.02802734 24.46939453 -60.29970703 23.64826172 -59.54931641 22.80224609 C-43.25086625 5.45058429 -22.96186901 -0.01627409 0 0 Z " fill="#E64A19" transform="translate(196.75634765625,31.70947265625)"/>
<path d="M0 0 C14.045625 -0.0825 28.09125 -0.165 42.5625 -0.25 C46.96795166 -0.28641602 51.37340332 -0.32283203 55.91235352 -0.36035156 C61.36706543 -0.37841797 61.36706543 -0.37841797 63.93516541 -0.3817749 C65.69704756 -0.38784513 67.45891501 -0.40176025 69.22068787 -0.42230225 C91.935422 -0.67349623 111.24489402 4.8761696 128 21 C143.45648788 37.06163585 149.66515758 55.77612668 149.47094727 77.79370117 C148.94516924 96.22103541 142.34729776 112.26425109 130 126 C129.48179687 126.61101562 128.96359375 127.22203125 128.4296875 127.8515625 C118.20246642 139.106645 103.41480203 145.39629949 89 149 C59.35718119 150.23511745 29.66853927 150 0 150 C0 100.5 0 51 0 0 Z " fill="#FE6F42" transform="translate(267,32)"/>
<path d="M0 0 C1.97538678 0.00747766 3.95078107 0.01316336 5.92617798 0.01715088 C11.07846229 0.03228731 16.23028211 0.07146311 21.38238525 0.1159668 C26.65850546 0.15718091 31.93470208 0.17521725 37.2109375 0.1953125 C47.52884782 0.23797113 57.84641626 0.30607377 68.1640625 0.390625 C68.25737351 11.04918668 68.32813403 21.70764874 68.37131119 32.36653805 C68.3920501 37.31766788 68.42011242 42.26851514 68.46582031 47.21948242 C68.509773 52.011157 68.53330211 56.80256244 68.54357147 61.59442329 C68.5508753 63.40857738 68.56513325 65.22271931 68.58698273 67.03675652 C68.84299662 89.20485243 64.4749707 108.47106603 49.1640625 125.390625 C48.48730469 126.16019531 47.81054688 126.92976563 47.11328125 127.72265625 C35.04709778 140.67119317 17.30272694 149.01852015 -0.4375 149.7265625 C-22.00614774 150.05379132 -41.93120564 145.89071066 -57.88037109 130.45654297 C-59.21509644 129.11719119 -60.5262889 127.75450751 -61.8359375 126.390625 C-62.51140625 125.71128906 -63.186875 125.03195312 -63.8828125 124.33203125 C-78.15982798 109.13901257 -82.55084088 89.90913485 -82.140625 69.71484375 C-81.3144063 50.57866267 -72.54619643 32.64889737 -58.8359375 19.390625 C-41.17145048 3.85523509 -22.74228623 -0.25561985 0 0 Z " fill="#65BB69" transform="translate(198.8359375,330.609375)"/>
<path d="M0 0 C1.43845027 1.20360125 2.85450394 2.43434962 4.25 3.6875 C5.48169922 4.77998047 5.48169922 4.77998047 6.73828125 5.89453125 C19.64272161 18.01569754 28.89712854 35.49379548 29.5859375 53.41015625 C29.90274403 75.3266252 26.03371423 95.48967562 10.31591797 111.73193359 C8.97656619 113.06665894 7.61388251 114.3778514 6.25 115.6875 C5.23099609 116.70070313 5.23099609 116.70070313 4.19140625 117.734375 C-10.8553965 131.87399006 -30.46477129 136.27506003 -50.5078125 135.95703125 C-69.59937567 135.25314688 -87.53774191 126.31050187 -100.75 112.6875 C-114.26386894 97.48181846 -120.32350496 80.89089384 -120.125 60.6875 C-120.13660156 59.50671875 -120.14820313 58.3259375 -120.16015625 57.109375 C-120.12443545 46.29787809 -118.20561075 36.40187194 -113.25 26.75 C-112.90888184 26.08033203 -112.56776367 25.41066406 -112.21630859 24.72070312 C-102.47740676 6.46296623 -85.7866172 -6.08600284 -66.1875 -12.25 C-43.70369028 -18.47945921 -18.66214773 -13.83348013 0 0 Z " fill="#28B6F5" transform="translate(386.75,195.3125)"/>
</svg>
